<?xml version="1.0" encoding="UTF-8" standalone="yes"?>
<svg xmlns="http://www.w3.org/2000/svg" xmlns:xlink="http://www.w3.org/1999/xlink" width="1690.650px" height="965.650px" version="1.1" viewBox="-348.130 419.870 676.260 386.260">
  <!--
	Exported with Concepts: Smarter Sketching
	Version: 2022.02.7 on Android 10
	https://concepts.app/
	-->
  <title>Безымянный 5</title>
  <desc>Drawing exported from Concepts: Smarter Sketching</desc>
  <defs></defs>
  <g id="Wire" opacity="1.000">
    <path id="STROKE_91aa9d32-3b6b-4363-be1e-1b438bcd8bd6" opacity="1.000" fill="none" stroke="#000000" stroke-width="1.000" stroke-opacity="1.000" stroke-linecap="round" stroke-linejoin="round" d="M -340.000 428.000 L -340.000 430.255 L -340.000 428.000 Q -340.000 428.439 -340.000 428.560 L -340.000 428.000 L -340.000 428.157 L -340.000 428.000 L -340.000 429.287 L -340.000 428.000 Q -340.000 430.860 -340.000 432.394 L -340.000 428.000 L -340.000 438.000 Q -340.000 443.329 -340.000 448.000 Q -340.000 453.175 -340.000 458.000 Q -340.000 463.061 -340.000 468.000 Q -340.000 473.512 -340.000 478.000 Q -340.000 483.237 -340.000 488.000 Q -340.000 493.042 -340.000 498.000 Q -340.000 503.170 -340.000 508.000 Q -340.000 513.016 -340.000 518.000 Q -340.000 523.386 -340.000 528.000 Q -340.000 533.313 -340.000 538.000 Q -340.000 543.279 -340.000 548.000 Q -340.000 553.811 -340.000 558.000 Q -340.000 563.092 -340.000 568.000 Q -340.000 573.059 -340.000 578.000 Q -340.000 583.146 -340.000 588.000 Q -340.000 593.315 -340.000 598.000 Q -340.000 603.040 -340.000 608.000 Q -340.000 613.693 -340.000 618.000 Q -340.000 623.337 -340.000 628.000 Q -340.000 633.021 -340.000 638.000 Q -340.000 643.512 -340.000 648.000 Q -340.000 653.721 -340.000 658.000 Q -340.000 663.244 -340.000 668.000 Q -340.000 673.655 -340.000 678.000 Q -340.000 683.137 -340.000 688.000 Q -340.000 693.629 -340.000 698.000 Q -340.000 703.232 -340.000 708.000 Q -340.000 713.603 -340.000 718.000 Q -340.000 723.448 -340.000 728.000 Q -340.000 733.738 -340.000 738.000 Q -340.000 743.342 -340.000 748.000 Q -340.000 753.147 -340.000 758.000 Q -340.000 763.114 -340.000 768.000 Q -340.000 773.202 -340.000 778.000 Q -340.000 783.088 -340.000 788.000 L -340.000 787.365 L -340.000 788.000 Q -340.000 793.095 -340.000 798.000 "></path>
    <path id="STROKE_9e5dcfd7-fb35-4223-a376-efe2877934b6" opacity="1.000" fill="none" stroke="#000000" stroke-width="1.000" stroke-opacity="1.000" stroke-linecap="round" stroke-linejoin="round" d="M -339.940 428.000 L -340.000 428.000 L -338.171 428.000 L -340.000 428.000 L -335.677 428.000 L -340.000 428.000 L -330.000 428.000 Q -324.819 428.000 -320.000 428.000 Q -313.880 428.000 -310.000 428.000 Q -304.831 428.000 -300.000 428.000 Q -294.656 428.000 -290.000 428.000 Q -282.591 428.000 -280.000 428.000 Q -273.984 428.000 -270.000 428.000 Q -262.764 428.000 -260.000 428.000 Q -254.197 428.000 -250.000 428.000 Q -244.344 428.000 -240.000 428.000 Q -231.676 428.000 -220.000 428.000 Q -214.825 428.000 -210.000 428.000 Q -204.400 428.000 -200.000 428.000 Q -194.032 428.000 -190.000 428.000 Q -183.174 428.000 -180.000 428.000 Q -174.044 428.000 -170.000 428.000 Q -164.553 428.000 -160.000 428.000 Q -153.453 428.000 -140.000 428.000 Q -134.109 428.000 -130.000 428.000 Q -123.894 428.000 -120.000 428.000 Q -114.322 428.000 -110.000 428.000 Q -104.871 428.000 -100.000 428.000 Q -94.777 428.000 -90.000 428.000 Q -82.390 428.000 -70.000 428.000 Q -64.010 428.000 -60.000 428.000 Q -53.876 428.000 -50.000 428.000 Q -44.948 428.000 -40.000 428.000 Q -32.842 428.000 -30.000 428.000 Q -24.638 428.000 -20.000 428.000 Q -13.980 428.000 -10.000 428.000 Q -4.047 428.000 0.000 428.000 Q 6.289 428.000 10.000 428.000 Q 15.016 428.000 20.000 428.000 Q 25.151 428.000 30.000 428.000 Q 35.286 428.000 40.000 428.000 Q 45.621 428.000 50.000 428.000 Q 56.802 428.000 60.000 428.000 Q 65.650 428.000 70.000 428.000 Q 76.146 428.000 80.000 428.000 Q 86.241 428.000 90.000 428.000 Q 95.209 428.000 100.000 428.000 Q 105.384 428.000 110.000 428.000 Q 115.318 428.000 120.000 428.000 Q 125.493 428.000 130.000 428.000 Q 135.185 428.000 140.000 428.000 Q 145.159 428.000 150.000 428.000 Q 155.253 428.000 160.000 428.000 Q 166.032 428.000 170.000 428.000 Q 176.729 428.000 180.000 428.000 Q 185.457 428.000 190.000 428.000 Q 195.873 428.000 200.000 428.000 Q 205.364 428.000 210.000 428.000 Q 215.257 428.000 220.000 428.000 Q 225.231 428.000 230.000 428.000 Q 235.044 428.000 240.000 428.000 Q 245.662 428.000 250.000 428.000 Q 255.434 428.000 260.000 428.000 Q 265.046 428.000 270.000 428.000 Q 275.261 428.000 280.000 428.000 Q 285.356 428.000 290.000 428.000 Q 295.209 428.000 300.000 428.000 Q 305.103 428.000 310.000 428.000 Q 315.076 428.000 320.000 428.000 "></path>
    <path id="STROKE_4eb9a650-381a-4da6-af5d-130641e40d6b" opacity="1.000" fill="none" stroke="#000000" stroke-width="1.000" stroke-opacity="1.000" stroke-linecap="round" stroke-linejoin="round" d="M 320.000 428.000 L 320.000 429.704 L 320.000 428.000 L 320.000 430.106 L 320.000 428.000 Q 320.000 430.413 320.000 431.876 L 320.000 428.000 L 320.000 432.238 L 320.000 428.000 L 320.000 438.000 Q 320.000 443.016 320.000 448.000 Q 320.000 454.558 320.000 458.000 Q 320.000 463.124 320.000 468.000 Q 320.000 473.379 320.000 478.000 Q 320.000 483.594 320.000 488.000 Q 320.000 493.245 320.000 498.000 Q 320.000 503.742 320.000 508.000 Q 320.000 513.072 320.000 518.000 Q 320.000 523.729 320.000 528.000 L 320.000 528.074 "></path>
    <path id="STROKE_a87183b1-0b86-48ce-83bf-ecdff29e373d" opacity="1.000" fill="none" stroke="#000000" stroke-width="1.000" stroke-opacity="1.000" stroke-linecap="round" stroke-linejoin="round" d="M -340.000 798.000 L -338.653 798.000 L -340.000 798.000 L -336.803 798.000 L -340.000 798.000 L -330.000 798.000 Q -324.819 798.000 -320.000 798.000 Q -314.805 798.000 -310.000 798.000 Q -304.710 798.000 -300.000 798.000 Q -294.937 798.000 -290.000 798.000 Q -284.642 798.000 -280.000 798.000 Q -274.628 798.000 -270.000 798.000 Q -264.292 798.000 -260.000 798.000 Q -254.599 798.000 -250.000 798.000 Q -244.666 798.000 -240.000 798.000 Q -234.612 798.000 -230.000 798.000 Q -225.000 798.000 -220.000 798.000 Q -214.986 798.000 -210.000 798.000 Q -204.730 798.000 -200.000 798.000 Q -194.716 798.000 -190.000 798.000 Q -184.010 798.000 -180.000 798.000 Q -174.286 798.000 -170.000 798.000 Q -164.634 798.000 -160.000 798.000 Q -154.700 798.000 -150.000 798.000 Q -144.686 798.000 -140.000 798.000 Q -134.752 798.000 -130.000 798.000 Q -124.819 798.000 -120.000 798.000 Q -114.885 798.000 -110.000 798.000 Q -104.590 798.000 -100.000 798.000 Q -93.892 798.000 -90.000 798.000 Q -84.280 798.000 -80.000 798.000 Q -74.949 798.000 -70.000 798.000 Q -64.614 798.000 -60.000 798.000 Q -54.600 798.000 -50.000 798.000 Q -44.988 798.000 -40.000 798.000 Q -34.853 798.000 -30.000 798.000 Q -24.759 798.000 -20.000 798.000 Q -14.704 798.000 -10.000 798.000 Q -4.972 798.000 0.000 798.000 Q 5.083 798.000 10.000 798.000 Q 15.418 798.000 20.000 798.000 Q 25.513 798.000 30.000 798.000 Q 35.004 798.000 40.000 798.000 Q 45.380 798.000 47.344 798.000 "></path>
    <path id="STROKE_4106ec3b-95b0-4c6a-ac9d-e73a14412651" opacity="1.000" fill="none" stroke="#000000" stroke-width="1.000" stroke-opacity="1.000" stroke-linecap="round" stroke-linejoin="round" d="M -80.000 798.000 L -80.000 796.192 L -80.000 798.000 L -80.000 795.991 L -80.000 798.000 Q -80.000 794.704 -80.000 794.302 L -80.000 798.000 L -80.000 788.000 Q -80.000 782.881 -80.000 778.000 Q -80.000 770.977 -80.000 768.000 Q -80.000 762.893 -80.000 758.000 Q -80.000 752.759 -80.000 748.000 Q -80.000 741.740 -80.000 738.000 Q -80.000 732.370 -80.000 728.000 Q -80.000 722.195 -80.000 718.000 Q -80.000 712.101 -80.000 708.000 Q -80.000 702.972 -80.000 698.000 Q -80.000 691.550 -80.000 688.000 Q -80.000 682.582 -80.000 678.000 Q -80.000 672.850 -80.000 668.000 L -80.000 668.346 L -80.000 668.000 L -80.000 668.145 L -80.000 668.000 L -80.000 668.265 L -80.000 668.000 L -80.000 668.024 L -80.000 668.000 L -80.000 668.587 L -80.000 668.000 "></path>
    <path id="STROKE_adf43dac-a735-4742-b59a-47e08aa53a90" opacity="1.000" fill="none" stroke="#000000" stroke-width="1.000" stroke-opacity="1.000" stroke-linecap="round" stroke-linejoin="round" d="M -210.000 798.000 L -210.000 797.037 L -210.000 798.000 L -210.000 796.836 L -210.000 798.000 L -210.000 797.077 L -210.000 798.000 L -210.000 797.680 L -210.000 798.000 L -210.000 797.761 L -210.000 798.000 L -210.000 797.801 L -210.000 798.000 L -210.000 797.519 L -210.000 798.000 Q -210.000 797.761 -210.000 797.640 L -210.000 798.000 L -210.000 797.359 L -210.000 798.000 L -210.000 797.560 L -210.000 798.000 L -210.000 796.353 L -210.000 798.000 L -210.000 795.026 L -210.000 798.000 Q -210.000 793.940 -210.000 788.000 Q -210.000 782.881 -210.000 778.000 Q -210.000 772.425 -210.000 768.000 Q -210.000 761.486 -210.000 758.000 Q -210.000 752.216 -210.000 748.000 Q -210.000 742.826 -210.000 738.000 Q -210.000 732.812 -210.000 728.000 Q -210.000 722.315 -210.000 718.000 Q -210.000 712.020 -210.000 708.000 Q -210.000 701.966 -210.000 698.000 Q -210.000 691.711 -210.000 688.000 Q -210.000 682.418 -210.000 678.000 L -210.000 678.963 L -210.000 678.000 Q -210.000 672.770 -210.000 668.000 L -210.000 668.708 L -210.000 668.000 L -210.000 668.708 L -210.000 668.000 Q -210.000 668.627 -210.000 668.788 L -210.000 668.000 L -210.000 668.547 L -210.000 668.000 L -210.000 668.587 L -210.000 668.000 Q -210.000 668.579 -210.000 668.627 L -210.000 668.000 "></path>
    <path id="STROKE_f22b00f7-01d9-4e9d-b17c-36a9189b70c9" opacity="1.000" fill="none" stroke="#000000" stroke-width="1.000" stroke-opacity="1.000" stroke-linecap="round" stroke-linejoin="round" d="M 50.231 797.656 Q 50.351 797.536 50.336 797.551 Q 50.321 797.566 50.330 797.556 Q 50.340 797.547 50.570 797.316 Q 50.801 797.085 50.635 797.252 Q 50.468 797.418 51.417 796.470 Q 52.366 795.521 53.909 793.978 Q 55.452 792.435 56.782 791.105 Q 58.111 789.775 58.921 788.965 Q 59.731 788.155 60.250 787.637 Q 60.768 787.119 61.013 786.874 Q 61.258 786.629 61.555 786.331 Q 61.853 786.034 62.322 785.565 Q 62.791 785.096 64.975 782.911 Q 67.160 780.727 68.666 779.220 Q 70.172 777.714 70.935 776.951 Q 71.698 776.189 72.360 775.526 Q 73.023 774.864 73.418 774.469 Q 73.813 774.074 73.758 774.128 Q 73.704 774.183 74.250 773.636 Q 74.797 773.089 78.067 769.819 Q 81.337 766.549 83.459 764.427 Q 85.582 762.305 95.079 752.807 Q 104.577 743.309 110.481 737.406 Q 116.384 731.502 120.305 727.581 Q 124.226 723.660 128.364 719.523 Q 132.501 715.386 134.628 713.258 Q 136.756 711.131 138.411 709.475 Q 140.067 707.820 144.253 703.634 Q 148.439 699.448 151.300 696.587 Q 154.161 693.726 156.719 691.168 Q 159.277 688.610 162.871 685.016 Q 166.464 681.422 169.139 678.747 Q 171.814 676.072 174.763 673.124 Q 177.711 670.175 179.559 668.328 Q 181.407 666.480 182.477 665.409 Q 183.548 664.339 184.384 663.503 Q 185.220 662.667 186.992 660.895 Q 188.763 659.123 190.547 657.339 Q 192.331 655.556 195.402 652.484 Q 198.474 649.412 200.926 646.961 Q 203.378 644.509 205.900 641.987 Q 208.422 639.464 212.518 635.368 Q 216.615 631.272 218.923 628.963 Q 221.232 626.654 222.883 625.003 Q 224.534 623.352 225.478 622.409 Q 226.422 621.465 228.407 619.480 Q 230.391 617.495 232.897 614.990 Q 235.402 612.484 237.256 610.631 Q 239.109 608.778 240.755 607.131 Q 242.402 605.485 244.250 603.636 Q 246.099 601.788 249.234 598.652 Q 252.370 595.516 254.508 593.379 Q 256.645 591.241 257.542 590.344 Q 258.439 589.447 259.490 588.397 Q 260.540 587.346 261.238 586.649 Q 261.935 585.951 262.638 585.249 Q 263.340 584.546 264.014 583.873 Q 264.687 583.200 266.772 581.114 Q 268.858 579.029 271.102 576.784 Q 273.347 574.539 274.536 573.350 Q 275.725 572.161 277.078 570.808 Q 278.432 569.454 279.127 568.760 Q 279.822 568.065 280.263 567.624 Q 280.704 567.183 281.052 566.834 Q 281.401 566.486 281.397 566.489 Q 281.394 566.492 281.349 566.538 Q 281.303 566.583 281.758 566.129 Q 282.213 565.674 283.384 564.502 Q 284.556 563.330 285.136 562.750 Q 285.715 562.171 286.100 561.786 Q 286.485 561.401 286.840 561.047 Q 287.195 560.692 287.217 560.669 Q 287.239 560.647 287.676 560.210 Q 288.113 559.773 288.571 559.315 Q 289.029 558.858 289.342 558.544 Q 289.656 558.230 291.322 556.564 Q 292.988 554.899 295.005 552.881 Q 297.023 550.863 299.294 548.592 Q 301.566 546.321 302.689 545.198 Q 303.812 544.075 305.299 542.587 Q 306.787 541.100 307.886 540.001 Q 308.984 538.902 309.522 538.364 Q 310.060 537.826 310.435 537.451 Q 310.810 537.077 310.636 537.250 Q 310.463 537.424 310.825 537.061 Q 311.188 536.699 311.684 536.202 Q 312.180 535.706 312.551 535.335 Q 312.922 534.964 312.915 534.971 Q 312.908 534.979 312.883 535.003 Q 312.858 535.028 312.862 535.024 Q 312.866 535.021 313.311 534.575 Q 313.757 534.130 313.725 534.161 Q 314.050 533.836 314.435 533.451 Q 314.820 533.066 314.671 533.215 Q 314.522 533.365 315.065 532.821 Q 315.609 532.277 315.403 532.483 Q 315.197 532.689 315.509 532.377 Q 315.821 532.065 316.124 531.763 Q 316.426 531.460 316.718 531.169 Q 317.009 530.877 317.047 530.839 Q 317.085 530.802 317.081 530.805 Q 317.078 530.808 317.364 530.522 Q 317.650 530.237 317.729 530.157 Q 317.808 530.078 317.744 530.142 Q 317.680 530.206 318.035 529.851 Q 318.390 529.497 318.487 529.399 Q 318.585 529.301 318.611 529.275 "></path>
    <path id="STROKE_80544a3a-b52b-4ea2-b79b-f42f8c4326a7" opacity="1.000" fill="none" stroke="#000000" stroke-width="1.000" stroke-opacity="1.000" stroke-linecap="round" stroke-linejoin="round" d="M 46.936 798.000 L 50.000 798.000 "></path>
    <path id="STROKE_b097360f-7faf-4769-bf0d-18386992c6e4" opacity="1.000" fill="none" stroke="#000000" stroke-width="1.000" stroke-opacity="1.000" stroke-linecap="round" stroke-linejoin="round" d="M 319.049 528.814 Q 319.063 528.800 319.243 528.620 Q 319.423 528.440 319.526 528.337 Q 319.628 528.235 319.656 528.207 Q 319.683 528.180 319.728 528.135 Q 319.773 528.090 319.807 528.055 Q 319.842 528.021 319.837 528.026 Q 319.831 528.032 319.838 528.025 Q 319.845 528.018 319.843 528.020 Q 319.841 528.022 319.841 528.021 Q 319.842 528.021 319.861 528.002 Q 319.880 527.983 319.910 527.953 Q 319.940 527.922 319.990 527.872 Q 319.510 528.353 319.343 528.519 Q 319.177 528.686 319.058 528.804 Q 318.940 528.923 318.833 529.029 Q 318.727 529.136 318.620 529.243 Q 318.513 529.350 318.469 529.394 Q 318.424 529.438 318.368 529.495 Q 318.312 529.551 318.247 529.616 Q 318.181 529.681 318.141 529.721 Q 318.101 529.761 318.101 529.761 Q 318.102 529.761 318.107 529.755 Q 318.113 529.750 318.040 529.823 Q 317.966 529.896 317.827 530.036 Q 317.687 530.176 317.596 530.267 Q 317.505 530.358 317.463 530.399 Q 317.422 530.441 317.390 530.473 Q 317.357 530.505 317.355 530.507 Q 317.354 530.509 317.353 530.510 Q 317.352 530.510 317.354 530.509 Q 317.356 530.507 317.349 530.514 Q 317.342 530.521 317.345 530.517 Q 317.349 530.514 317.297 530.566 Q 317.245 530.618 317.213 530.649 Q 317.182 530.681 317.168 530.695 Q 317.154 530.709 317.152 530.711 Q 317.150 530.712 317.165 530.698 Q 317.180 530.683 317.068 530.794 "></path>
    <path id="STROKE_b00b384f-546e-4ded-a667-65fbcde603aa" opacity="1.000" fill="none" stroke="#000000" stroke-width="1.000" stroke-opacity="1.000" stroke-linecap="round" stroke-linejoin="round" d="M -340.000 667.936 L -340.000 668.000 "></path>
    <path id="STROKE_21dcc5fa-787e-4ef5-9279-a0c4134be4c2" opacity="1.000" fill="none" stroke="#000000" stroke-width="1.000" stroke-opacity="1.000" stroke-linecap="round" stroke-linejoin="round" d="M -340.000 668.000 L -337.087 668.000 L -340.000 668.000 L -330.000 668.000 Q -324.831 668.000 -320.000 668.000 Q -314.843 668.000 -310.000 668.000 Q -304.934 668.000 -300.000 668.000 "></path>
    <path id="STROKE_84d85b12-5c72-42a3-8f97-22860965c2b8" opacity="1.000" fill="none" stroke="#000000" stroke-width="1.000" stroke-opacity="1.000" stroke-linecap="round" stroke-linejoin="round" d="M -210.000 668.000 L -211.818 668.000 L -210.000 668.000 Q -212.933 668.000 -213.092 668.000 L -210.000 668.000 L -213.967 668.000 L -210.000 668.000 Q -214.803 668.000 -220.000 668.000 Q -225.030 668.000 -230.000 668.000 Q -235.018 668.000 -240.000 668.000 Q -245.006 668.000 -250.000 668.000 L -247.951 668.000 L -250.000 668.000 L -247.314 668.000 "></path>
    <path id="STROKE_89e4406f-a467-4fbc-9f65-31001f3a6cf0" opacity="1.000" fill="none" stroke="#000000" stroke-width="1.000" stroke-opacity="1.000" stroke-linecap="round" stroke-linejoin="round" d="M -210.000 668.000 L -210.903 668.000 L -210.000 668.000 L -211.619 668.000 L -210.000 668.000 Q -204.894 668.000 -200.000 668.000 Q -194.827 668.000 -190.000 668.000 Q -184.560 668.000 -180.000 668.000 Q -174.731 668.000 -170.000 668.000 "></path>
    <path id="STROKE_6900ae9c-827b-4092-8f6e-8f53cfc2a9ca" opacity="1.000" fill="none" stroke="#000000" stroke-width="1.000" stroke-opacity="1.000" stroke-linecap="round" stroke-linejoin="round" d="M -120.000 668.000 Q -114.962 668.000 -110.000 668.000 Q -104.974 668.000 -100.000 668.000 Q -94.787 668.000 -90.000 668.000 Q -84.958 668.000 -80.000 668.000 L -81.814 668.000 L -80.000 668.000 L -82.530 668.000 L -80.000 668.000 "></path>
    <path id="STROKE_9ec9381a-a73e-4965-8f76-0314b9bbb6ce" opacity="0.039" fill="none" stroke="#000000" stroke-width="1.000" stroke-opacity="0.039" stroke-linecap="round" stroke-linejoin="round" d="M -300.000 548.000 Q -294.978 548.000 -294.643 548.000 L -294.734 548.000 L -294.612 548.000 Q -295.176 548.000 -300.000 548.000 "></path>
    <path id="STROKE_3ab495c9-0cc1-456b-b318-b375775d9dc9" opacity="0.039" fill="none" stroke="#000000" stroke-width="1.000" stroke-opacity="0.039" stroke-linecap="round" stroke-linejoin="round" d="M -300.000 548.000 Q -294.947 548.000 -290.000 548.000 "></path>
    <path id="STROKE_64760db6-8d25-4a1b-be03-587d3357ab06" opacity="0.039" fill="none" stroke="#000000" stroke-width="1.000" stroke-opacity="0.039" stroke-linecap="round" stroke-linejoin="round" d="M -305.480 548.000 L -300.000 548.000 Q -294.886 548.000 -290.000 548.000 "></path>
    <path id="STROKE_5bb1d61d-7cee-4d80-a0d5-90fc8cdb19a5" opacity="0.039" fill="none" stroke="#000000" stroke-width="1.000" stroke-opacity="0.039" stroke-linecap="round" stroke-linejoin="round" d="M -280.000 528.000 Q -280.000 522.953 -280.000 518.000 Q -280.000 512.596 -280.000 508.000 Q -280.000 502.727 -280.000 498.000 Q -280.000 492.370 -280.000 488.000 L -280.000 498.000 Q -280.000 503.184 -280.000 508.000 Q -280.000 513.662 -280.000 518.000 Q -280.000 523.349 -280.000 528.000 "></path>
    <path id="STROKE_bb0f652a-ed57-4adf-99da-f81225951112" opacity="0.039" fill="none" stroke="#000000" stroke-width="1.000" stroke-opacity="0.039" stroke-linecap="round" stroke-linejoin="round" d="M -256.322 518.000 L -250.000 518.000 Q -244.411 518.000 -240.000 518.000 Q -234.999 518.000 -230.000 518.000 L -240.000 518.000 Q -246.483 518.000 -250.000 518.000 L -240.000 518.000 Q -233.719 518.000 -230.000 518.000 Q -223.454 518.000 -220.000 518.000 "></path>
    <path id="STROKE_4f562989-64b1-4ab9-a32f-2faaffb8d3e9" opacity="0.039" fill="none" stroke="#000000" stroke-width="1.000" stroke-opacity="0.039" stroke-linecap="round" stroke-linejoin="round" d="M -236.735 558.000 Q -230.000 558.000 -220.000 558.000 Q -214.467 558.000 -210.000 558.000 L -220.000 558.000 Q -225.312 558.000 -230.000 558.000 L -220.000 558.000 Q -213.950 558.000 -210.000 558.000 Q -204.659 558.000 -200.000 558.000 Q -194.089 558.000 -190.000 558.000 L -200.000 558.000 "></path>
    <path id="STROKE_cc3be838-ce2e-42f9-bafe-18de15ebd5a7" opacity="0.039" fill="none" stroke="#4a4646" stroke-width="1.000" stroke-opacity="0.039" stroke-linecap="round" stroke-linejoin="round" d="M -207.522 538.000 L -200.000 538.000 Q -194.942 538.000 -190.000 538.000 "></path>
    <path id="STROKE_98eeac67-d81b-4d92-b814-81efdafed14c" opacity="0.039" fill="none" stroke="#4a4646" stroke-width="1.000" stroke-opacity="0.039" stroke-linecap="round" stroke-linejoin="round" d="M -260.000 528.000 Q -260.000 522.831 -260.000 518.000 Q -260.000 511.164 -260.000 508.000 Q -260.000 502.483 -260.000 498.000 L -260.000 491.791 "></path>
    <path id="STROKE_063a3b81-4e42-419d-8818-bb2b6ece7965" opacity="0.039" fill="none" stroke="#000000" stroke-width="1.000" stroke-opacity="0.039" stroke-linecap="round" stroke-linejoin="round" d="M -20.000 588.000 L -20.000 578.000 Q -20.000 571.838 -20.000 568.000 Q -20.000 561.829 -20.000 558.000 Q -20.000 552.033 -20.000 548.000 Q -20.000 542.837 -20.000 538.000 Q -20.000 531.373 -20.000 528.000 L -20.000 538.000 Q -20.000 543.821 -20.000 548.000 Q -20.000 556.653 -20.000 578.000 Q -20.000 584.671 -20.000 588.000 L -20.000 578.000 Q -20.000 572.437 -20.000 568.000 Q -20.000 560.203 -20.000 548.000 Q -20.000 540.484 -20.000 518.000 Q -20.000 512.082 -20.000 508.000 L -20.000 518.000 Q -20.000 524.358 -20.000 528.000 Q -20.000 534.196 -20.000 538.000 Q -20.000 543.478 -20.000 548.000 Q -20.000 553.488 -20.000 558.000 "></path>
    <path id="STROKE_b1ee9da9-5052-45a9-a298-d14b8d03ba77" opacity="0.039" fill="none" stroke="#000000" stroke-width="1.000" stroke-opacity="0.039" stroke-linecap="round" stroke-linejoin="round" d="M 20.000 567.518 L 20.000 558.000 Q 20.000 552.846 20.000 548.000 L 20.000 558.000 Q 20.000 565.593 20.000 578.000 Q 20.000 583.302 20.000 588.000 Q 20.000 593.183 20.000 598.000 L 20.000 588.000 Q 20.000 580.735 20.000 578.000 Q 20.000 571.796 20.000 568.000 L 20.000 578.000 Q 20.000 583.644 20.000 588.000 Q 20.000 594.423 20.000 598.000 "></path>
    <path id="STROKE_754dce8d-925b-42c8-9ec4-fa6d01ffd376" opacity="1.000" fill="none" stroke="#000000" stroke-width="1.000" stroke-opacity="1.000" stroke-linecap="round" stroke-linejoin="round" d="M -210.000 548.000 L -207.751 548.000 L -210.000 548.000 Q -207.303 548.000 -206.855 548.000 L -210.000 548.000 Q -206.408 548.000 -206.132 548.000 L -210.000 548.000 Q -205.340 548.000 -200.000 548.000 Q -194.942 548.000 -190.000 548.000 Q -184.853 548.000 -180.000 548.000 Q -174.764 548.000 -170.000 548.000 Q -164.745 548.000 -160.000 548.000 Q -154.415 548.000 -150.000 548.000 Q -144.499 548.000 -140.000 548.000 Q -134.444 548.000 -130.000 548.000 Q -124.493 548.000 -120.000 548.000 Q -114.956 548.000 -110.000 548.000 Q -104.695 548.000 -100.000 548.000 Q -94.675 548.000 -90.000 548.000 Q -84.965 548.000 -80.000 548.000 Q -74.119 548.000 -70.000 548.000 Q -64.478 548.000 -60.000 548.000 Q -54.458 548.000 -50.000 548.000 Q -44.370 548.000 -40.000 548.000 Q -33.902 548.000 -30.000 548.000 Q -23.572 548.000 -20.000 548.000 Q -13.897 548.000 -10.000 548.000 Q -4.015 548.000 0.000 548.000 Q 5.247 548.000 10.000 548.000 Q 15.474 548.000 20.000 548.000 Q 25.631 548.000 30.000 548.000 Q 35.238 548.000 40.000 548.000 Q 45.085 548.000 50.000 548.000 L 55.002 548.000 Q 54.967 548.000 54.933 548.000 Q 54.967 548.000 55.002 548.000 L 54.967 548.000 L 55.002 548.000 L 54.967 548.000 L 55.002 548.000 L 54.967 548.000 Q 55.002 548.000 55.036 548.000 L 54.967 548.000 Q 55.002 548.000 55.036 548.000 L 55.002 548.000 L 55.036 548.000 L 55.002 548.000 Q 55.140 548.000 60.000 548.000 Q 64.865 548.000 70.000 548.000 Q 74.939 548.000 80.000 548.000 Q 85.022 548.000 86.335 548.000 L 86.232 548.000 Q 86.335 548.000 86.439 548.000 Q 86.335 548.000 86.232 548.000 L 86.335 548.000 L 86.232 548.000 Q 87.226 548.000 86.921 548.000 Q 86.989 548.000 90.000 548.000 L 88.505 548.000 L 90.000 548.000 L 88.677 548.000 L 90.000 548.000 L 88.505 548.000 L 90.000 548.000 L 88.608 548.000 L 90.000 548.000 "></path>
    <path id="STROKE_a5bc8ebc-17cd-4380-b410-dd357b40439e" opacity="1.000" fill="none" stroke="#000000" stroke-width="1.000" stroke-opacity="1.000" stroke-linecap="round" stroke-linejoin="round" d="M -10.000 583.398 Q -10.000 583.332 -10.000 578.000 Q -10.000 572.999 -10.000 568.000 L -10.000 568.714 L -10.000 568.000 Q -10.000 570.002 -10.000 578.000 Q -10.000 583.255 -10.000 588.000 Q -10.000 593.310 -10.000 598.000 Q -10.000 597.619 -10.000 596.910 L -10.000 598.000 L -10.000 596.624 L -10.000 598.000 Q -10.000 596.253 -10.000 596.081 L -10.000 598.000 Q -10.000 595.232 -10.000 593.396 L -10.000 598.000 L -10.000 588.000 Q -10.000 582.626 -10.000 578.000 Q -10.000 572.999 -10.000 568.000 Q -10.000 562.829 -10.000 558.000 Q -10.000 552.545 -10.000 548.000 Q -10.000 542.947 -10.000 538.000 L -10.000 541.661 L -10.000 538.000 L -10.000 541.661 L -10.000 538.000 L -10.000 541.861 L -10.000 538.000 Q -10.000 532.805 -10.000 528.000 L -10.000 531.863 L -10.000 528.000 L -10.000 528.320 L -10.000 528.000 L -10.000 528.320 L -10.000 528.000 L -10.000 528.263 L -10.000 528.000 L -10.000 528.092 L -10.000 528.000 L -10.000 528.406 L -10.000 528.000 L -10.000 528.406 L -10.000 528.000 L -10.000 528.234 L -10.000 528.000 L -10.000 528.292 L -10.000 528.000 L -10.000 528.206 L -10.000 528.000 L -10.000 528.263 L -10.000 528.000 L -10.000 528.149 L -10.000 528.000 L -10.000 528.320 L -10.000 528.000 Q -10.000 528.206 -10.000 528.320 L -10.000 528.000 L -10.000 528.320 L -10.000 528.000 L -10.000 528.349 L -10.000 528.000 L -10.000 528.263 L -10.000 528.000 L -10.000 528.206 L -10.000 528.000 L -10.000 528.263 L -10.000 528.000 L -10.000 528.292 L -10.000 528.000 L -10.000 528.377 L -10.000 528.000 L -10.000 528.206 L -10.000 528.000 L -10.000 528.006 L -10.000 528.000 L -10.000 528.206 L -10.000 528.000 L -10.000 528.263 L -10.000 528.000 L -10.000 528.377 L -10.000 528.000 L -10.000 528.406 L -10.000 528.000 L -10.000 528.349 L -10.000 528.000 L -10.000 528.263 L -10.000 528.000 Q -10.000 528.149 -10.000 528.377 L -10.000 528.000 L -10.000 528.292 L -10.000 528.000 Q -10.000 522.711 -10.000 518.000 L -10.000 518.407 L -10.000 518.000 L -10.000 518.436 L -10.000 518.000 L -10.000 518.122 L -10.000 518.000 L -10.000 518.007 L -10.000 518.000 L -10.000 518.179 L -10.000 518.000 Q -10.000 512.951 -10.000 508.000 Q -10.000 502.924 -10.000 498.000 L -10.000 498.296 L -10.000 498.000 L -10.000 498.639 L -10.000 498.000 "></path>
    <path id="STROKE_0f0564dc-3634-4781-8639-2664d86d9951" opacity="1.000" fill="none" stroke="#000000" stroke-width="1.000" stroke-opacity="1.000" stroke-linecap="round" stroke-linejoin="round" d="M -110.000 598.000 Q -110.000 597.409 -110.000 597.427 Q -110.000 597.444 -110.000 597.391 Q -110.000 597.337 -110.000 597.229 Q -110.000 597.121 -110.000 596.249 Q -110.000 595.378 -110.000 588.000 Q -110.000 582.883 -110.000 578.000 Q -110.000 572.599 -110.000 568.000 Q -110.000 562.744 -110.000 558.000 Q -110.000 552.488 -110.000 548.000 Q -110.000 542.947 -110.000 538.000 Q -110.000 532.634 -110.000 528.000 Q -110.000 522.978 -110.000 518.000 L -110.000 519.379 L -110.000 518.000 Q -110.000 512.408 -110.000 508.000 L -110.000 510.180 L -110.000 508.000 Q -110.000 509.866 -110.000 510.094 L -110.000 508.000 L -110.000 510.094 L -110.000 508.000 L -110.000 510.180 L -110.000 508.000 L -110.000 510.009 L -110.000 508.000 L -110.000 509.495 L -110.000 508.000 L -110.000 509.437 L -110.000 508.000 Q -110.000 509.237 -110.000 509.409 L -110.000 508.000 L -110.000 509.437 L -110.000 508.000 L -110.000 509.495 L -110.000 508.000 L -110.000 509.180 L -110.000 508.000 L -110.000 509.352 L -110.000 508.000 L -110.000 509.437 L -110.000 508.000 L -110.000 509.523 L -110.000 508.000 L -110.000 509.409 L -110.000 508.000 L -110.000 509.495 L -110.000 508.000 L -110.000 509.409 L -110.000 508.000 L -110.000 509.495 L -110.000 508.000 L -110.000 509.123 L -110.000 508.000 L -110.000 509.580 L -110.000 508.000 L -110.000 509.523 L -110.000 508.000 L -110.000 509.323 L -110.000 508.000 Q -110.000 509.352 -110.000 509.523 L -110.000 508.000 Q -110.000 509.266 -110.000 509.380 L -110.000 508.000 Q -110.000 509.577 -110.000 509.637 L -110.000 508.000 L -110.000 509.180 L -110.000 508.000 L -110.000 509.523 L -110.000 508.000 L -110.000 509.637 L -110.000 508.000 L -110.000 509.495 L -110.000 508.000 L -110.000 509.295 L -110.000 508.000 L -110.000 509.495 L -110.000 508.000 Q -110.000 509.437 -110.000 509.552 L -110.000 508.000 L -110.000 509.266 L -110.000 508.000 L -110.000 509.266 L -110.000 508.000 L -110.000 509.580 L -110.000 508.000 Q -110.000 509.535 -110.000 509.694 L -110.000 508.000 L -110.000 509.523 L -110.000 508.000 L -110.000 509.552 L -110.000 508.000 L -110.000 509.380 L -110.000 508.000 L -110.000 509.466 L -110.000 508.000 Q -110.000 509.352 -110.000 509.466 L -110.000 508.000 L -110.000 509.495 L -110.000 508.000 L -110.000 509.523 L -110.000 508.000 L -110.000 509.180 L -110.000 508.000 L -110.000 509.694 L -110.000 508.000 L -110.000 509.380 L -110.000 508.000 L -110.000 509.552 L -110.000 508.000 Q -110.000 502.895 -110.000 498.000 L -110.000 498.410 L -110.000 498.000 L -110.000 498.353 L -110.000 498.000 L -110.000 498.553 L -110.000 498.000 L -110.000 498.468 L -110.000 498.000 Q -110.000 499.125 -110.000 499.353 "></path>
  </g>
</svg>